<svg xmlns="http://www.w3.org/2000/svg" xmlns:xlink="http://www.w3.org/1999/xlink" width="1080" zoomAndPan="magnify" viewBox="0 0 810 809.999993" height="1080" preserveAspectRatio="xMidYMid meet" version="1.0"><defs><g/><clipPath id="id1"><path d="M 212.476562 115.851562 L 597.226562 115.851562 L 597.226562 500.601562 L 212.476562 500.601562 Z M 212.476562 115.851562 " clip-rule="nonzero"/></clipPath></defs><rect x="-81" width="972" fill="#ffffff" y="-80.999999" height="971.999992" fill-opacity="1"/><rect x="-81" width="972" fill="#ffffff" y="-80.999999" height="971.999992" fill-opacity="1"/><rect x="-81" width="972" fill="#0b617e" y="-80.999999" height="971.999992" fill-opacity="1"/><g clip-path="url(#id1)"><path fill="#26c6da" d="M 585.324219 359.519531 C 580.445312 376.125 573 391.878906 563.757812 406.390625 C 556.125 418.199219 547.449219 429.296875 537.699219 439.390625 C 536.441406 440.769531 535.03125 442.003906 533.695312 443.304688 C 532.332031 444.585938 531.011719 445.90625 529.621094 447.152344 L 525.394531 450.828125 L 523.28125 452.667969 L 521.089844 454.410156 L 516.710938 457.90625 C 515.230469 459.039062 513.699219 460.109375 512.199219 461.222656 C 509.230469 463.492188 506.070312 465.492188 502.980469 467.59375 C 502.535156 467.894531 502.066406 468.207031 501.578125 468.535156 C 501.074219 468.839844 500.550781 469.152344 500.003906 469.480469 C 498.914062 470.132812 497.738281 470.835938 496.488281 471.582031 C 494.019531 473.136719 491.097656 474.59375 487.941406 476.273438 C 487.148438 476.683594 486.351562 477.128906 485.511719 477.53125 C 484.667969 477.921875 483.808594 478.324219 482.933594 478.730469 C 481.179688 479.539062 479.359375 480.378906 477.488281 481.246094 C 473.640625 482.75 469.632812 484.550781 465.261719 485.953125 C 448.003906 492.210938 426.464844 496.078125 404.851562 496.167969 C 383.238281 496.078125 361.695312 492.210938 344.441406 485.953125 C 340.066406 484.550781 336.0625 482.75 332.214844 481.246094 C 330.339844 480.378906 328.523438 479.539062 326.769531 478.730469 C 325.894531 478.324219 325.03125 477.921875 324.1875 477.53125 C 323.351562 477.132812 322.554688 476.683594 321.761719 476.273438 C 318.605469 474.597656 315.683594 473.136719 313.214844 471.585938 C 311.964844 470.835938 310.789062 470.132812 309.699219 469.480469 C 309.15625 469.15625 308.628906 468.839844 308.125 468.535156 C 307.636719 468.207031 307.167969 467.894531 306.722656 467.59375 C 294.980469 459.902344 283.949219 451.160156 273.921875 441.339844 C 263.34375 430.777344 254.101562 418.941406 245.945312 406.394531 C 236.703125 391.882812 229.253906 376.125 224.378906 359.519531 C 219.300781 342.96875 216.949219 325.597656 216.796875 308.226562 C 216.949219 290.851562 219.300781 273.480469 224.378906 256.929688 C 229.253906 240.324219 236.703125 224.570312 245.945312 210.058594 C 253.574219 198.25 262.25 187.152344 272 177.058594 C 273.261719 175.679688 274.667969 174.445312 276.007812 173.144531 C 277.367188 171.863281 278.691406 170.542969 280.082031 169.296875 L 284.308594 165.621094 L 286.417969 163.78125 L 288.613281 162.039062 L 292.988281 158.542969 C 294.472656 157.410156 296 156.339844 297.503906 155.226562 C 300.472656 152.957031 303.628906 150.957031 306.722656 148.855469 C 307.167969 148.554688 307.636719 148.242188 308.125 147.914062 C 308.628906 147.609375 309.152344 147.296875 309.699219 146.96875 C 310.789062 146.316406 311.960938 145.613281 313.210938 144.867188 C 315.683594 143.316406 318.605469 141.855469 321.761719 140.175781 C 322.554688 139.765625 323.347656 139.320312 324.1875 138.917969 C 325.03125 138.527344 325.890625 138.125 326.769531 137.71875 C 328.523438 136.910156 330.339844 136.070312 332.214844 135.203125 C 336.058594 133.699219 340.066406 131.898438 344.4375 130.496094 C 361.695312 124.238281 383.234375 120.371094 404.851562 120.28125 C 426.464844 120.371094 448.003906 124.238281 465.261719 130.496094 C 469.632812 131.898438 473.640625 133.699219 477.488281 135.203125 C 479.359375 136.070312 481.175781 136.910156 482.929688 137.71875 C 483.808594 138.125 484.667969 138.527344 485.511719 138.917969 C 486.351562 139.320312 487.144531 139.765625 487.941406 140.175781 C 491.09375 141.851562 494.019531 143.316406 496.488281 144.863281 C 497.738281 145.613281 498.910156 146.316406 500.003906 146.96875 C 500.546875 147.292969 501.070312 147.609375 501.574219 147.914062 C 502.0625 148.242188 502.53125 148.554688 502.976562 148.855469 C 514.71875 156.550781 525.75 165.289062 535.777344 175.109375 C 546.355469 185.675781 555.601562 197.507812 563.753906 210.058594 C 573 224.566406 580.445312 240.324219 585.324219 256.929688 C 590.402344 273.480469 592.75 290.851562 592.902344 308.226562 C 592.75 325.597656 590.402344 342.96875 585.324219 359.519531 Z M 597.222656 308.097656 L 597.21875 308.082031 C 597.0625 290.34375 594.679688 272.59375 589.507812 255.671875 C 584.539062 238.695312 576.925781 222.582031 567.4375 207.78125 L 562.875 200.925781 C 562.875 200.925781 561.558594 199.082031 559.578125 196.316406 C 557.675781 193.492188 554.761719 190.015625 551.980469 186.4375 C 548.980469 183.042969 546.105469 179.535156 543.6875 177.144531 C 541.335938 174.691406 539.769531 173.054688 539.769531 173.054688 C 539.769531 173.054688 539.375 172.652344 538.660156 171.964844 C 537.945312 171.277344 536.929688 170.292969 535.707031 169.113281 C 533.324219 166.6875 529.867188 163.761719 526.472656 160.761719 C 524.730469 159.316406 522.941406 157.929688 521.285156 156.597656 C 520.453125 155.9375 519.652344 155.296875 518.890625 154.691406 C 518.101562 154.121094 517.355469 153.582031 516.664062 153.085938 C 513.910156 151.097656 512.074219 149.773438 512.074219 149.773438 C 512.074219 149.773438 511.671875 149.449219 511.027344 149.027344 C 510.382812 148.601562 509.53125 148.03125 508.679688 147.457031 C 506.96875 146.3125 505.257812 145.167969 505.257812 145.167969 C 504.800781 144.863281 504.324219 144.539062 503.828125 144.203125 C 503.3125 143.890625 502.777344 143.566406 502.21875 143.230469 C 501.105469 142.558594 499.902344 141.839844 498.625 141.070312 C 496.101562 139.480469 493.113281 137.976562 489.886719 136.257812 C 489.074219 135.835938 488.257812 135.378906 487.402344 134.96875 C 486.539062 134.5625 485.660156 134.152344 484.765625 133.738281 C 482.96875 132.90625 481.109375 132.042969 479.191406 131.15625 C 475.257812 129.609375 471.15625 127.765625 466.683594 126.324219 C 449.019531 119.910156 426.964844 115.9375 404.851562 115.851562 C 382.734375 115.9375 360.679688 119.910156 343.015625 126.328125 C 338.546875 127.765625 334.441406 129.609375 330.507812 131.15625 C 328.589844 132.042969 326.730469 132.90625 324.9375 133.738281 C 324.039062 134.15625 323.160156 134.566406 322.296875 134.96875 C 321.441406 135.378906 320.625 135.835938 319.8125 136.257812 C 316.585938 137.976562 313.597656 139.480469 311.074219 141.070312 C 309.796875 141.839844 308.597656 142.558594 307.480469 143.230469 C 306.925781 143.566406 306.386719 143.890625 305.875 144.203125 C 305.375 144.539062 304.898438 144.863281 304.441406 145.167969 C 304.441406 145.167969 302.734375 146.3125 301.023438 147.457031 C 300.167969 148.03125 299.316406 148.601562 298.675781 149.03125 C 298.027344 149.449219 297.628906 149.773438 297.628906 149.773438 C 297.628906 149.773438 295.789062 151.097656 293.035156 153.085938 C 292.347656 153.582031 291.601562 154.121094 290.8125 154.691406 C 290.050781 155.296875 289.246094 155.9375 288.417969 156.597656 C 286.761719 157.929688 284.96875 159.316406 283.226562 160.761719 C 279.835938 163.761719 276.375 166.6875 273.992188 169.113281 C 272.769531 170.292969 271.753906 171.277344 271.042969 171.964844 C 270.328125 172.652344 269.933594 173.054688 269.933594 173.054688 C 269.933594 173.054688 268.363281 174.691406 266.015625 177.144531 C 263.597656 179.535156 260.722656 183.042969 257.722656 186.4375 C 254.941406 190.015625 252.023438 193.496094 250.121094 196.316406 C 248.144531 199.082031 246.824219 200.929688 246.824219 200.929688 L 242.265625 207.78125 C 232.773438 222.582031 225.164062 238.699219 220.191406 255.671875 C 215.023438 272.597656 212.636719 290.34375 212.480469 308.082031 L 212.476562 308.097656 L 212.476562 308.351562 L 212.480469 308.367188 C 212.636719 326.105469 215.023438 343.855469 220.191406 360.777344 C 225.164062 377.753906 232.773438 393.867188 242.265625 408.667969 L 246.824219 415.523438 C 246.824219 415.523438 248.144531 417.367188 250.121094 420.132812 C 252.027344 422.957031 254.941406 426.433594 257.722656 430.011719 C 260.722656 433.40625 263.597656 436.914062 266.015625 439.304688 C 268.363281 441.757812 269.933594 443.394531 269.933594 443.394531 C 269.933594 443.394531 270.328125 443.796875 271.042969 444.484375 C 271.753906 445.171875 272.769531 446.15625 273.992188 447.335938 C 276.375 449.761719 279.835938 452.6875 283.226562 455.6875 C 284.96875 457.136719 286.761719 458.519531 288.417969 459.851562 C 289.246094 460.515625 290.050781 461.152344 290.8125 461.757812 C 291.601562 462.328125 292.347656 462.867188 293.035156 463.363281 C 295.789062 465.351562 297.628906 466.675781 297.628906 466.675781 C 297.628906 466.675781 298.027344 467 298.675781 467.417969 C 299.316406 467.847656 300.171875 468.417969 301.023438 468.992188 C 302.734375 470.136719 304.441406 471.28125 304.441406 471.28125 C 304.898438 471.589844 305.375 471.910156 305.875 472.246094 C 306.390625 472.558594 306.925781 472.882812 307.480469 473.21875 C 308.597656 473.890625 309.796875 474.613281 311.074219 475.378906 C 313.601562 476.96875 316.589844 478.472656 319.816406 480.191406 C 320.625 480.613281 321.441406 481.070312 322.300781 481.484375 C 323.160156 481.886719 324.042969 482.296875 324.9375 482.714844 C 326.730469 483.542969 328.59375 484.40625 330.511719 485.292969 C 334.441406 486.839844 338.546875 488.683594 343.019531 490.125 C 360.679688 496.539062 382.734375 500.511719 404.851562 500.601562 C 426.964844 500.511719 449.019531 496.539062 466.683594 490.121094 C 471.15625 488.683594 475.261719 486.839844 479.191406 485.292969 C 481.109375 484.40625 482.96875 483.542969 484.765625 482.710938 C 485.660156 482.292969 486.542969 481.882812 487.402344 481.484375 C 488.261719 481.070312 489.078125 480.613281 489.886719 480.191406 C 493.113281 478.472656 496.101562 476.96875 498.628906 475.378906 C 499.90625 474.613281 501.105469 473.890625 502.222656 473.21875 C 502.777344 472.882812 503.3125 472.558594 503.828125 472.246094 C 504.328125 471.910156 504.804688 471.589844 505.261719 471.28125 C 505.261719 471.28125 506.96875 470.136719 508.679688 468.992188 C 509.53125 468.417969 510.386719 467.847656 511.027344 467.417969 C 511.671875 467 512.074219 466.675781 512.074219 466.675781 C 512.074219 466.675781 513.910156 465.351562 516.664062 463.363281 C 517.355469 462.867188 518.101562 462.328125 518.890625 461.757812 C 519.652344 461.152344 520.453125 460.515625 521.285156 459.851562 C 522.941406 458.519531 524.730469 457.136719 526.472656 455.6875 C 529.867188 452.6875 533.324219 449.761719 535.707031 447.335938 C 536.929688 446.15625 537.945312 445.171875 538.660156 444.484375 C 539.375 443.796875 539.769531 443.394531 539.769531 443.394531 C 539.769531 443.394531 541.335938 441.757812 543.6875 439.304688 C 546.105469 436.914062 548.980469 433.40625 551.980469 430.011719 C 554.761719 426.433594 557.675781 422.953125 559.578125 420.132812 C 561.558594 417.367188 562.875 415.523438 562.875 415.523438 L 567.4375 408.667969 C 576.925781 393.867188 584.539062 377.753906 589.507812 360.777344 C 594.679688 343.851562 597.0625 326.105469 597.21875 308.367188 L 597.222656 308.351562 L 597.226562 308.226562 L 597.222656 308.097656 " fill-opacity="1" fill-rule="nonzero"/></g><g fill="#26c6da" fill-opacity="1"><g transform="translate(288.986941, 374.193275)"><g><path d="M 42.359375 3.167969 C 72.84375 3.167969 97.78125 -14.382812 97.78125 -45.789062 L 97.78125 -189.890625 L 69.675781 -189.890625 L 69.675781 -47.503906 C 69.675781 -14.515625 61.363281 0.132812 43.152344 0.132812 C 27.183594 0.132812 16.363281 -3.695312 3.167969 -13.328125 L 1.453125 -10.820312 C 13.855469 -1.054688 26.921875 3.167969 42.359375 3.167969 Z M 42.359375 3.167969 "/></g></g></g><g fill="#26c6da" fill-opacity="1"><g transform="translate(363.075766, 451.209812)"><g><path d="M 90.933594 0 L 90.933594 -186.070312 L 152.300781 -186.070312 L 152.300781 -189.09375 L 1.3125 -189.09375 L 1.3125 -186.070312 L 62.945312 -186.070312 L 62.945312 0 Z M 90.933594 0 "/></g></g></g><g fill="#26c6da" fill-opacity="1"><g transform="translate(318.126949, 591.203726)"><g><path d="M 1.179688 2.386719 L 1.179688 2.742188 C 1.652344 2.832031 2.09375 2.890625 2.507812 2.890625 C 6.25 2.890625 7.015625 -0.796875 7.015625 -2.976562 C 7.015625 -6.101562 6.988281 -14.742188 6.988281 -14.742188 L 6.988281 -25.148438 C 6.988281 -26.59375 6.988281 -29.128906 9.226562 -29.128906 L 9.226562 -29.484375 L 1.796875 -29.484375 L 1.796875 -29.128906 C 4.039062 -29.128906 4.039062 -26.59375 4.039062 -25.148438 L 4.039062 -3.007812 C 4.039062 -0.707031 3.714844 2.386719 1.179688 2.386719 Z M 1.179688 2.386719 "/></g></g></g><g fill="#26c6da" fill-opacity="1"><g transform="translate(330.123327, 591.203726)"><g><path d="M 7.664062 0 L 7.664062 -0.355469 C 6.632812 -0.355469 5.21875 -0.617188 5.21875 -2.832031 C 5.21875 -3.597656 5.835938 -5.75 6.75 -8.519531 L 19.695312 -8.519531 C 20.636719 -5.75 21.316406 -3.566406 21.316406 -2.742188 C 21.316406 -0.882812 19.902344 -0.355469 18.867188 -0.355469 L 18.867188 0 L 28.246094 0 L 28.246094 -0.355469 C 27.066406 -0.617188 25.503906 -1.0625 24.058594 -4.304688 C 23.113281 -6.425781 22.40625 -8.667969 20.136719 -14.742188 C 17.894531 -20.726562 15.214844 -27.65625 14.417969 -29.484375 C 14.238281 -29.894531 14.035156 -30.21875 13.621094 -30.21875 C 12.855469 -30.21875 10.847656 -27.742188 9.550781 -27.742188 L 9.082031 -27.742188 L 9.082031 -27.332031 L 10.171875 -27.332031 C 11.558594 -27.332031 12.148438 -27.183594 12.648438 -26.476562 C 11.4375 -23.410156 9.640625 -18.867188 8.109375 -14.742188 C 5.835938 -8.667969 5.128906 -6.425781 4.1875 -4.304688 C 2.742188 -1.0625 1.179688 -0.617188 0 -0.355469 L 0 0 Z M 13 -25.828125 C 14.0625 -23.171875 17.363281 -15.035156 19.457031 -9.109375 L 6.929688 -9.109375 C 8.726562 -14.503906 11.5 -21.90625 13 -25.828125 Z M 13 -25.828125 "/></g></g></g><g fill="#26c6da" fill-opacity="1"><g transform="translate(360.098016, 591.203726)"><g><path d="M 0 -29.484375 L 0 -29.128906 C 1.710938 -29.128906 2.859375 -28.449219 3.863281 -27.09375 C 4.863281 -25.738281 13.207031 -12.175781 13.207031 -12.175781 L 13.207031 -4.332031 C 13.207031 -2.890625 13.207031 -0.355469 10.96875 -0.355469 L 10.96875 0 L 18.398438 0 L 18.398438 -0.355469 C 16.15625 -0.355469 16.15625 -2.890625 16.15625 -4.332031 L 16.15625 -12.472656 C 17.363281 -14.417969 24.410156 -25.855469 25.324219 -27.09375 C 26.328125 -28.449219 27.476562 -29.128906 29.1875 -29.128906 L 29.1875 -29.484375 L 21.933594 -29.484375 L 21.933594 -29.128906 C 22.847656 -29.128906 23.761719 -28.714844 23.761719 -27.890625 C 23.761719 -25.796875 18.160156 -16.777344 16.007812 -13.589844 C 13.855469 -16.746094 8.019531 -25.621094 8.019531 -27.890625 C 8.019531 -28.714844 8.726562 -29.128906 9.640625 -29.128906 L 9.640625 -29.484375 Z M 0 -29.484375 "/></g></g></g><g fill="#26c6da" fill-opacity="1"><g transform="translate(391.015837, 591.203726)"><g/></g></g><g fill="#26c6da" fill-opacity="1"><g transform="translate(403.807979, 591.203726)"><g><path d="M 0.355469 -24.855469 C 0.355469 -27.65625 3.242188 -28.894531 6.605469 -28.894531 L 9.464844 -28.894531 L 9.464844 -4.332031 C 9.464844 -2.890625 9.464844 -0.355469 7.222656 -0.355469 L 7.222656 0 L 14.652344 0 L 14.652344 -0.355469 C 12.414062 -0.355469 12.414062 -2.890625 12.414062 -4.332031 L 12.414062 -28.894531 L 15.273438 -28.894531 C 18.632812 -28.894531 21.523438 -27.65625 21.523438 -24.855469 L 21.875 -24.855469 L 21.875 -29.484375 L 0 -29.484375 L 0 -24.855469 Z M 0.355469 -24.855469 "/></g></g></g><g fill="#26c6da" fill-opacity="1"><g transform="translate(427.416578, 591.203726)"><g><path d="M 16.777344 0.738281 C 25.621094 0.738281 31.78125 -6.191406 31.78125 -14.742188 C 31.78125 -23.292969 25.621094 -30.21875 16.777344 -30.21875 C 7.929688 -30.21875 1.769531 -23.292969 1.769531 -14.742188 C 1.769531 -6.191406 7.929688 0.738281 16.777344 0.738281 Z M 4.863281 -14.742188 C 4.863281 -22.878906 9.757812 -29.484375 16.777344 -29.484375 C 23.792969 -29.484375 28.6875 -22.878906 28.6875 -14.742188 C 28.6875 -6.605469 23.792969 0 16.777344 0 C 9.757812 0 4.863281 -6.605469 4.863281 -14.742188 Z M 4.863281 -14.742188 "/></g></g></g><g fill="#26c6da" fill-opacity="1"><g transform="translate(462.696354, 591.203726)"><g><path d="M 0 -29.484375 L 0 -29.128906 C 1.710938 -29.128906 2.859375 -28.449219 3.863281 -27.09375 C 4.863281 -25.738281 13.207031 -12.175781 13.207031 -12.175781 L 13.207031 -4.332031 C 13.207031 -2.890625 13.207031 -0.355469 10.96875 -0.355469 L 10.96875 0 L 18.398438 0 L 18.398438 -0.355469 C 16.15625 -0.355469 16.15625 -2.890625 16.15625 -4.332031 L 16.15625 -12.472656 C 17.363281 -14.417969 24.410156 -25.855469 25.324219 -27.09375 C 26.328125 -28.449219 27.476562 -29.128906 29.1875 -29.128906 L 29.1875 -29.484375 L 21.933594 -29.484375 L 21.933594 -29.128906 C 22.847656 -29.128906 23.761719 -28.714844 23.761719 -27.890625 C 23.761719 -25.796875 18.160156 -16.777344 16.007812 -13.589844 C 13.855469 -16.746094 8.019531 -25.621094 8.019531 -27.890625 C 8.019531 -28.714844 8.726562 -29.128906 9.640625 -29.128906 L 9.640625 -29.484375 Z M 0 -29.484375 "/></g></g></g></svg>